<?xml version="1.0" standalone="no"?><!DOCTYPE svg PUBLIC "-//W3C//DTD SVG 1.1//EN" "http://www.w3.org/Graphics/SVG/1.1/DTD/svg11.dtd"><svg t="1637225080387" class="icon" viewBox="0 0 1024 1024" version="1.1" xmlns="http://www.w3.org/2000/svg" p-id="26331" xmlns:xlink="http://www.w3.org/1999/xlink" width="200" height="200"><defs><style type="text/css"></style></defs><path d="M184.5 207.1h751.2v608.2H184.5z" fill="#91B4FF" p-id="26332"></path><path d="M87.8 603c-13.3 0-24.2-10.8-24.2-24.2v-49.2c0-13.3 10.8-24.2 24.2-24.2s24.2 10.8 24.2 24.2v49.2c0 13.4-10.8 24.2-24.2 24.2z" fill="#3778FF" p-id="26333"></path><path d="M935.6 839.4H87.8c-13.3 0-24.2-10.8-24.2-24.2V665.5c0-13.3 10.8-24.2 24.2-24.2s24.2 10.8 24.2 24.2v125.6h799.5V231.2H112v202.1c0 13.3-10.8 24.2-24.2 24.2s-24.2-10.8-24.2-24.2V207.1c0-13.3 10.8-24.2 24.2-24.2h847.8c13.3 0 24.2 10.8 24.2 24.2v608.2c0 13.3-10.8 24.1-24.2 24.1z" fill="#3778FF" p-id="26334"></path><path d="M643.7 836H107.3c-9.7 0-18.5-5.8-22.3-14.8-3.8-9-1.8-19.3 5-26.3L358.3 522c9.1-9.2 25.4-9.2 34.5 0L661 794.8c6.8 7 8.8 17.3 5 26.3-3.8 9-12.6 14.9-22.3 14.9zM165 787.7h421.1L375.5 573.4 165 787.7z" fill="#3778FF" p-id="26335"></path><path d="M927.9 836H638.2c-13.3 0-24.2-10.8-24.2-24.2s10.8-24.2 24.2-24.2h234L672.5 574.3 545.2 710.2c-9.1 9.7-24.4 10.3-34.2 1.1-9.7-9.1-10.2-24.4-1.1-34.2l144.9-154.7c9.1-9.8 26.2-9.8 35.3 0l255.5 272.8c6.6 7 8.4 17.3 4.5 26.1-3.9 9-12.6 14.7-22.2 14.7zM677.8 473.6c-57.2 0-103.7-46.5-103.7-103.7s46.5-103.7 103.7-103.7 103.7 46.5 103.7 103.7-46.6 103.7-103.7 103.7z m0-159.1c-30.5 0-55.4 24.8-55.4 55.4s24.8 55.4 55.4 55.4 55.4-24.8 55.4-55.4-24.9-55.4-55.4-55.4z" fill="#3778FF" p-id="26336"></path></svg>